<?xml version="1.0" encoding="UTF-8" standalone="no"?>
<svg
   xmlns:dc="http://purl.org/dc/elements/1.1/"
   xmlns:cc="http://creativecommons.org/ns#"
   xmlns:rdf="http://www.w3.org/1999/02/22-rdf-syntax-ns#"
   xmlns:svg="http://www.w3.org/2000/svg"
   xmlns="http://www.w3.org/2000/svg"
   xmlns:sodipodi="http://sodipodi.sourceforge.net/DTD/sodipodi-0.dtd"
   xmlns:inkscape="http://www.inkscape.org/namespaces/inkscape"
   inkscape:version="1.0beta2 (2b71d25, 2019-12-03)"
   sodipodi:docname="logo.svg"
   viewBox="0 0 789 350"
   height="350"
   width="789"
   id="svg78"
   version="1.1">
  <metadata
     id="metadata84">
    <rdf:RDF>
      <cc:Work
         rdf:about="">
        <dc:format>image/svg+xml</dc:format>
        <dc:type
           rdf:resource="http://purl.org/dc/dcmitype/StillImage" />
        <dc:title></dc:title>
      </cc:Work>
    </rdf:RDF>
  </metadata>
  <defs
     id="defs82" />
  <sodipodi:namedview
     inkscape:current-layer="g86"
     inkscape:window-maximized="1"
     inkscape:window-y="0"
     inkscape:window-x="27"
     inkscape:cy="298.77143"
     inkscape:cx="488.05419"
     inkscape:zoom="0.62600011"
     showgrid="false"
     id="namedview80"
     inkscape:window-height="872"
     inkscape:window-width="1573"
     inkscape:pageshadow="2"
     inkscape:pageopacity="0"
     guidetolerance="10"
     gridtolerance="10"
     objecttolerance="10"
     borderopacity="1"
     inkscape:document-rotation="0"
     bordercolor="#666666"
     pagecolor="#ffffff" />
  <g
     id="g86"
     inkscape:label="Image"
     inkscape:groupmode="layer">
    <path
       style="fill:#020202"
       d="m 185.81804,325.40014 c -10.73347,-2.29818 -20.83336,-10.07545 -25.368,-19.53427 -1.84048,-3.83906 -2.41354,-6.74568 -2.46807,-12.5184 -0.062,-6.56145 0.34799,-8.36988 3.22098,-14.20803 7.00475,-14.23426 22.79064,-21.74863 40.05092,-19.06496 12.83368,1.99541 22.08316,8.33324 27.13363,18.5922 3.92182,7.96634 4.75029,14.69191 2.68319,21.78218 -3.21126,11.01472 -10.50787,18.93189 -21.38608,23.20489 -5.31705,2.08856 -17.9509,3.01302 -23.86657,1.74639 z m 17.27781,-13.09789 c 7.03361,-2.65748 12.25659,-10.99398 12.29314,-19.62128 0.0275,-6.50305 -1.24214,-9.90791 -5.28937,-14.18434 -4.15999,-4.39557 -8.40651,-6.13582 -14.90655,-6.1088 -8.72829,0.0363 -17.04701,5.22244 -19.7185,12.29314 -2.80777,7.43138 -0.4612,18.1973 5.0962,23.38106 5.15811,4.81131 15.7409,6.80346 22.52508,4.24022 z m 123.72219,13.09789 c -10.73347,-2.29818 -20.83336,-10.07545 -25.368,-19.53427 -1.84048,-3.83906 -2.41354,-6.74568 -2.46807,-12.5184 -0.062,-6.56145 0.34799,-8.36988 3.22098,-14.20803 7.00475,-14.23426 22.79064,-21.74863 40.05092,-19.06496 12.83368,1.99541 22.08316,8.33324 27.13363,18.5922 3.92182,7.96634 4.75029,14.69191 2.68319,21.78218 -3.21126,11.01472 -10.50787,18.93189 -21.38608,23.20489 -5.31705,2.08856 -17.9509,3.01302 -23.86657,1.74639 z m 17.89065,-13.38531 c 4.1407,-1.7301 9.14393,-7.42716 10.72207,-12.20898 1.99049,-6.03126 0.71711,-14.96162 -2.74297,-19.23665 -4.75468,-5.87457 -7.68959,-7.53323 -14.15743,-8.00107 -7.1771,-0.51915 -12.13107,0.99107 -16.85414,5.13798 -4.53888,3.98519 -6.26527,8.16457 -6.26527,15.16748 0,8.74803 4.33577,15.57256 12.00714,18.8993 4.37675,1.898 13.03706,2.01918 17.2906,0.24194 z m 149.10935,13.38531 c -10.73347,-2.29818 -20.83336,-10.07545 -25.368,-19.53427 -1.84048,-3.83906 -2.41354,-6.74568 -2.46807,-12.5184 -0.062,-6.56145 0.34799,-8.36988 3.22098,-14.20803 7.00475,-14.23426 22.79064,-21.74863 40.05092,-19.06496 12.83368,1.99541 22.08316,8.33324 27.13363,18.5922 3.92182,7.96634 4.75029,14.69191 2.68319,21.78218 -3.21126,11.01472 -10.50787,18.93189 -21.38608,23.20489 -5.31705,2.08856 -17.9509,3.01302 -23.86657,1.74639 z m 17.27781,-13.09789 c 12.57811,-4.75234 16.42907,-23.53526 6.93099,-33.80562 -4.00724,-4.33307 -8.29299,-6.13076 -14.61589,-6.13076 -12.40953,0 -21,8.2445 -21,20.15424 0,8.77719 4.10428,15.54237 11.5,18.95572 4.456,2.05657 12.85944,2.4607 17.1849,0.82642 z m 61.8151,12.72457 c -6.58168,-1.7143 -10.30613,-3.76695 -14.19932,-7.82563 -6.20356,-6.46727 -6.71895,-8.93796 -7.11032,-34.08532 l -0.35405,-22.75 h 8.08184 8.08185 l 0.004,21.25 c 0.004,23.70833 0.45272,25.55614 7.23712,29.81343 4.31482,2.7076 14.38243,2.33685 18.49837,-0.68122 5.69291,-4.17441 6.25751,-6.84734 6.25922,-29.63221 l 0.001,-20.75 h 8 8 v 19.95078 c 0,10.97293 -0.47779,22.17865 -1.06176,24.90161 -2.74385,12.79412 -12.27303,19.83184 -27.97815,20.6631 -5.18999,0.2747 -10.39276,-0.0556 -13.46009,-0.85454 z m 80.5,-0.0514 c -11.07479,-2.46239 -19.3664,-8.79956 -23.59311,-18.03192 -8.22929,-17.97514 0.1506,-37.16441 19.54526,-44.75702 8.33461,-3.26283 24.26324,-3.14834 32.54785,0.23395 l 6,2.44957 0.29063,7.09048 0.29063,7.09049 -6.08191,-2.91904 c -14.01596,-6.72701 -29.03316,-4.22754 -36.04019,5.99854 -2.048,2.98886 -2.45916,4.78374 -2.45916,10.73521 0,9.35578 2.86577,14.06433 10.97459,18.03161 4.9444,2.41907 6.40818,2.67499 12.91247,2.25757 5.41592,-0.34757 9.07337,-1.28385 13.97442,-3.57732 l 6.63852,-3.10659 v 6.87561 6.87561 l -5.75,2.15852 c -10.53966,3.95652 -19.53586,4.75455 -29.25,2.59468 z m -410,-32.10955 v -32.5 h 8 8 v 26.5 26.5 h 16.5 16.5 v 6 6 h -24.5 -24.5 z m 141,0 v -32.5 l 7.25,0.0102 7.25,0.0102 8.46833,10.53241 c 12.62456,15.70169 10.08398,15.5318 22.59803,1.51115 l 10.7676,-12.06396 h 6.83302 6.83302 v 32.5 32.5 h -7.97929 -7.9793 l -0.2707,-20.10188 -0.27071,-20.10187 -8.86253,10.10187 c -4.87439,5.55604 -9.4885,10.10188 -10.25357,10.10188 -0.76507,0 -5.10194,-4.50461 -9.63747,-10.01024 l -8.24643,-10.01024 -0.27071,20.01024 -0.2707,20.01024 h -7.9793 -7.97929 z M 260.81804,209.40014 c -10.73347,-2.29818 -20.83336,-10.07545 -25.368,-19.53427 -1.84048,-3.83906 -2.41354,-6.74568 -2.46807,-12.5184 -0.062,-6.56145 0.34799,-8.36988 3.22098,-14.20803 7.00475,-14.23426 22.79064,-21.74863 40.05092,-19.06496 12.83368,1.99541 22.08316,8.33324 27.13363,18.5922 3.92182,7.96634 4.75029,14.69191 2.68319,21.78218 -3.21126,11.01472 -10.50787,18.93189 -21.38608,23.20489 -5.31705,2.08856 -17.9509,3.01302 -23.86657,1.74639 z m 17.27781,-13.09789 c 7.03361,-2.65748 12.25659,-10.99398 12.29314,-19.62128 0.0275,-6.50305 -1.24214,-9.90791 -5.28937,-14.18434 -4.15999,-4.39557 -8.40651,-6.13582 -14.90655,-6.1088 -8.72829,0.0363 -17.04701,5.22244 -19.7185,12.29314 -2.80777,7.43138 -0.4612,18.1973 5.0962,23.38106 5.15811,4.81131 15.7409,6.80346 22.52508,4.24022 z m 224.3151,12.67312 c -11.07479,-2.46239 -19.3664,-8.79956 -23.59311,-18.03192 -8.22929,-17.97514 0.1506,-37.16441 19.54526,-44.75702 8.33461,-3.26283 24.26324,-3.14834 32.54785,0.23395 l 6,2.44957 0.29063,7.09048 0.29063,7.09049 -6.08191,-2.91904 c -14.01596,-6.72701 -29.03316,-4.22754 -36.04019,5.99854 -2.048,2.98886 -2.45916,4.78374 -2.45916,10.73521 0,9.35578 2.86577,14.06433 10.97459,18.03161 4.9444,2.41907 6.40818,2.67499 12.91247,2.25757 5.41592,-0.34757 9.07337,-1.28385 13.97442,-3.57732 l 6.63852,-3.10654 v 6.87561 6.87561 l -5.75,2.15852 c -10.53966,3.95652 -19.53586,4.75455 -29.25,2.59468 z m -332,-32.1095 v -32.5 h 8 8 v 14.71604 14.71605 l 9.75,-14.46605 9.75,-14.46604 9.33911,-0.2887 9.33911,-0.28871 -10.47219,15.29962 -10.47219,15.29962 14.41054,17.23909 14.41054,17.23908 h -10.38936 -10.38937 l -12.38809,-14.93698 -12.3881,-14.93699 -0.27605,14.93699 -0.27604,14.93698 h -7.97396 -7.97395 z m 141.13507,22.28805 c 2.20766,-5.65843 7.8833,-20.31543 12.61253,-32.57112 l 8.5986,-22.28307 10.05763,0.28307 10.05764,0.28307 7.84743,18.5 c 4.31609,10.175 10.48005,24.70455 13.69768,32.28789 l 5.85025,13.78789 -8.61952,-0.28789 -8.61952,-0.28789 -2.20694,-5.5 -2.20694,-5.5 -15.0101,-0.27555 -15.01011,-0.27555 -1.92255,5.77555 -1.92255,5.77555 -8.60873,0.28805 -8.60872,0.28805 z m 39.94888,-18.53805 c -1.03778,-2.6125 -2.87709,-7.225 -4.08737,-10.25 -1.21027,-3.025 -2.63626,-6.625 -3.16886,-8 -0.86042,-2.22133 -1.07547,-2.3086 -1.9293,-0.78293 -0.52852,0.94438 -2.48288,5.89438 -4.34302,11 -1.86015,5.10561 -3.69422,10.07043 -4.07573,11.03293 -0.63296,1.59689 0.18936,1.75 9.39875,1.75 h 10.0924 z m 36.91605,-3.75 v -32.5 h 8 8 v 26.5 26.5 h 16.5 16.5 v 6 6 h -24.5 -24.5 z m 59,0 v -32.5 h 8 8 v 32.5 32.5 h -8 -8 z m 104,0 v -32.5 h 23.5 23.5 v 6 6 h -15.5 -15.5 v 7 7 h 15 15 v 6 6 h -15 -15 v 7.5 7.5 h 16 16 v 6 6 h -24 -24 z m 49,-86.890493 c -11.07479,-2.462393 -19.3664,-8.799565 -23.59311,-18.03192 -8.22929,-17.975142 0.1506,-37.164412 19.54526,-44.757021 8.33461,-3.262831 24.26324,-3.148337 32.54785,0.233951 l 6,2.449569 0.29063,7.090483 0.29063,7.090483 -6.08191,-2.919037 c -14.01596,-6.72701 -29.03316,-4.227544 -36.04019,5.998536 -2.048,2.988866 -2.45916,4.783743 -2.45916,10.735214 0,9.35578 2.86577,14.064333 10.97459,18.031607 4.9444,2.419071 6.40818,2.674994 12.91247,2.257574 5.41592,-0.347572 9.07337,-1.283846 13.97442,-3.577326 l 6.63852,-3.106536 v 6.875611 6.875612 l -5.75,2.158514 c -10.53966,3.956522 -19.53586,4.754549 -29.25,2.594686 z m -430,-32.109502 v -32.5 h 7.97327 7.97326 l 0.27674,14.470827 0.27673,14.470826 9.79964,-14.470826 9.79965,-14.470827 h 8.45035 c 4.6477,0 8.45036,0.235766 8.45036,0.523924 0,0.288158 -4.46542,7.200686 -9.92315,15.361172 l -9.92315,14.837248 13.92315,16.586457 c 7.65773,9.122551 13.92315,16.835024 13.92315,17.138828 0,0.303804 -4.40451,0.552371 -9.7878,0.552371 h -9.7878 l -12.4622,-15.048219 -12.4622,-15.048218 -0.27605,15.048218 -0.27604,15.048219 h -7.97396 -7.97395 z m 68,0 v -32.5 h 8 8 v 26.5 26.5 h 16.5 16.5 v 6 6 h -24.5 -24.5 z m 59,0 v -32.5 h 8 8 v 32.5 32.5 h -8 -8 z m 31,0 v -32.5 l 7.25,0.01018 7.25,0.01018 8.46833,10.532416 c 12.62456,15.70169 10.08398,15.5318 22.59803,1.51115 l 10.7676,-12.063926 h 6.83302 6.83302 v 32.5 32.5 h -7.97929 -7.9793 l -0.2707,-20.101877 -0.27071,-20.101877 -8.86253,10.101877 c -4.87439,5.556032 -9.4885,10.101877 -10.25357,10.101877 -0.76507,0 -5.10194,-4.504608 -9.63747,-10.01024 l -8.24643,-10.01024 -0.27071,20.01024 -0.2707,20.01024 h -7.9793 -7.97929 z m 81.13507,22.288049 c 2.20766,-5.658427 7.8833,-20.315431 12.61253,-32.571121 l 8.5986,-22.283072 10.05763,0.283072 10.05764,0.283072 7.84743,18.5 c 4.31609,10.175 10.48005,24.70455 13.69768,32.287889 l 5.85025,13.787889 -8.61952,-0.287889 -8.61952,-0.287889 -2.20694,-5.5 -2.20694,-5.5 -15.0101,-0.275551 -15.01011,-0.275551 -1.92255,5.775551 -1.92255,5.775551 -8.60873,0.288049 -8.60872,0.28805 z M 449.4949,61.615875 c -1.03778,-2.6125 -2.87709,-7.225 -4.08737,-10.25 -1.21027,-3.025 -2.63626,-6.625 -3.16886,-8 -0.86042,-2.221332 -1.07547,-2.308603 -1.9293,-0.782933 -0.52852,0.944388 -2.48288,5.894388 -4.34302,11 -1.86015,5.105613 -3.69422,10.070433 -4.07573,11.032933 -0.63296,1.596888 0.18936,1.75 9.39875,1.75 h 10.0924 z m 45.91605,2.25 v -26.5 h -11.5 -11.5 v -6 -6 h 31 31 v 6 6 h -11.5 -11.5 v 26.5 26.5 h -8 -8 z m 50,-6 v -32.5 h 8 8 v 32.5 32.5 h -8 -8 z m 104,0 v -32.5 h 7.97327 7.97326 l 0.27674,14.470827 0.27673,14.470826 9.79964,-14.470826 9.79965,-14.470827 h 8.45035 c 4.6477,0 8.45036,0.235766 8.45036,0.523924 0,0.288158 -4.46542,7.200686 -9.92315,15.361172 l -9.92315,14.837248 14.06688,16.757684 c 9.59526,11.4307 14.28709,16.322548 14.75959,15.388828 0.38099,-0.752871 6.02437,-15.221181 12.54084,-32.151801 l 11.84814,-30.782946 10.04616,0.282946 10.04616,0.282945 7.84743,18.5 c 4.31609,10.175 10.48005,24.70455 13.69768,32.287889 l 5.85025,13.787889 -8.61952,-0.287889 -8.61952,-0.287889 -2.20694,-5.5 -2.20694,-5.5 -15.0101,-0.275551 -15.01011,-0.275551 -1.92435,5.775551 -1.92435,5.775551 -18.43773,0.27122 -18.43772,0.271221 -12.47977,-15.069439 -12.47978,-15.069439 -0.27605,15.048218 -0.27604,15.048219 h -7.97396 -7.97395 z m 105.08395,3.75 c -1.03778,-2.6125 -2.87709,-7.225 -4.08737,-10.25 -1.21027,-3.025 -2.63626,-6.625 -3.16886,-8 -0.86042,-2.221332 -1.07547,-2.308603 -1.9293,-0.782933 -0.52852,0.944388 -2.48288,5.894388 -4.34302,11 -1.86015,5.105613 -3.69422,10.070433 -4.07573,11.032933 -0.63296,1.596888 0.18936,1.75 9.39875,1.75 h 10.0924 z m 14.64741,-29.233025 3.76864,-6.983026 7.25,-0.01697 c 3.9875,-0.0093 7.25,0.15653 7.25,0.368591 0,0.212061 -3.39929,3.362061 -7.55397,7 -6.19709,5.426314 -8.17631,6.61443 -11.01864,6.61443 h -3.46468 z"
       id="path92"
       inkscape:connector-curvature="0" />
    <path
       style="fill:#30a4fd"
       d="M 0.41095348,60.865875 V 3.3658747 H 58.410953 116.41095 V 60.865875 118.36587 H 58.410953 0.41095348 Z"
       id="path98"
       inkscape:connector-curvature="0" />
    <path
       style="fill:#48af00"
       d="m 558.28339,317.61587 c -1.24387,-1.58606 -1.2085,-1.62143 0.37756,-0.37756 0.9625,0.75485 1.75,1.54235 1.75,1.75 0,0.82304 -0.82119,0.29331 -2.12756,-1.37244 z m 90,-11 c -1.24387,-1.58606 -1.2085,-1.62143 0.37756,-0.37756 0.9625,0.75485 1.75,1.54235 1.75,1.75 0,0.82304 -0.82119,0.29331 -2.12756,-1.37244 z m -531.87244,-130.25 v -58 h 58 58 l 0.062,26.75 c 0.0892,38.47205 -0.0952,62.61657 -0.48132,63.00263 -0.18441,0.18441 -6.6355,-7.22057 -14.33577,-16.4555 l -14.00048,-16.79079 10.46688,-15.29188 10.46689,-15.29187 -9.33911,0.28871 -9.33909,0.2887 -9.75,14.46604 -9.75,14.46605 v -14.71605 -14.71604 h -8 -8 v 32.5 32.5 h 7.97395 7.97396 l 0.27604,-14.93698 0.27605,-14.93699 12.3881,14.93699 12.38809,14.93698 h 10.36191 10.3619 v 12.5 12.5 h -58 -58 z m 380.87244,14.25 c -1.24387,-1.58606 -1.2085,-1.62143 0.37756,-0.37756 1.66575,1.30637 2.19548,2.12756 1.37244,2.12756 -0.20765,0 -0.99515,-0.7875 -1.75,-1.75 z m 98,-118.999995 c -1.24387,-1.586056 -1.2085,-1.621426 0.37756,-0.377555 0.9625,0.754844 1.75,1.542344 1.75,1.75 0,0.823034 -0.82119,0.293303 -2.12756,-1.372445 z"
       id="path96"
       inkscape:connector-curvature="0" />
    <path
       style="fill:#dd0808"
       d="m 0.41095348,292.36587 v -58 H 58.410953 116.41095 v 58 58 H 58.410953 0.41095348 Z"
       id="path94"
       inkscape:connector-curvature="0" />
  </g>
</svg>
