<svg xmlns="http://www.w3.org/2000/svg" height="350" width="789"><path style="fill:#020202" d="M185.818 325.4c-10.733-2.298-20.833-10.075-25.368-19.534-1.84-3.84-2.413-6.746-2.468-12.519-.062-6.561.348-8.37 3.22-14.208 7.006-14.234 22.792-21.748 40.052-19.065 12.834 1.996 22.083 8.334 27.133 18.593 3.922 7.966 4.75 14.692 2.684 21.782-3.212 11.015-10.508 18.932-21.386 23.205-5.317 2.088-17.951 3.013-23.867 1.746zm17.278-13.098c7.033-2.657 12.256-10.994 12.293-19.621.027-6.503-1.242-9.908-5.29-14.184-4.16-4.396-8.406-6.136-14.906-6.11-8.728.037-17.047 5.223-19.718 12.294-2.808 7.431-.462 18.197 5.096 23.381 5.158 4.811 15.74 6.803 22.525 4.24zM326.818 325.4c-10.733-2.298-20.833-10.075-25.368-19.534-1.84-3.84-2.413-6.746-2.468-12.519-.062-6.561.348-8.37 3.22-14.208 7.006-14.234 22.792-21.748 40.052-19.065 12.834 1.996 22.083 8.334 27.133 18.593 3.922 7.966 4.75 14.692 2.684 21.782-3.212 11.015-10.508 18.932-21.386 23.205-5.317 2.088-17.951 3.013-23.867 1.746zm17.89-13.385c4.141-1.73 9.145-7.427 10.723-12.21 1.99-6.03.717-14.96-2.743-19.236-4.755-5.874-7.69-7.533-14.158-8-7.177-.52-12.13.99-16.854 5.137-4.539 3.985-6.265 8.165-6.265 15.168 0 8.748 4.336 15.572 12.007 18.899 4.377 1.898 13.037 2.02 17.29.242zm149.11 13.385c-10.733-2.298-20.833-10.075-25.368-19.534-1.84-3.84-2.413-6.746-2.468-12.519-.062-6.561.348-8.37 3.22-14.208 7.006-14.234 22.792-21.748 40.052-19.065 12.834 1.996 22.083 8.334 27.133 18.593 3.922 7.966 4.75 14.692 2.684 21.782-3.212 11.015-10.508 18.932-21.386 23.205-5.317 2.088-17.951 3.013-23.867 1.746zm17.278-13.098c12.578-4.752 16.429-23.535 6.93-33.805-4.006-4.333-8.292-6.131-14.615-6.131-12.41 0-21 8.244-21 20.154 0 8.777 4.104 15.542 11.5 18.956 4.456 2.056 12.86 2.46 17.185.826zm61.815 12.725c-6.582-1.714-10.306-3.767-14.2-7.826-6.203-6.467-6.718-8.938-7.11-34.085l-.354-22.75h16.164l.004 21.25c.004 23.708.453 25.556 7.237 29.813 4.315 2.708 14.382 2.337 18.498-.68 5.693-4.175 6.258-6.848 6.26-29.633v-20.75h16v19.95c0 10.974-.477 22.18-1.061 24.902-2.744 12.794-12.273 19.832-27.978 20.663-5.19.275-10.393-.055-13.46-.854zm80.5-.052c-11.075-2.462-19.366-8.8-23.593-18.031-8.23-17.976.15-37.165 19.545-44.758 8.335-3.262 24.263-3.148 32.548.234l6 2.45.29 7.09.291 7.091-6.082-2.92c-14.016-6.726-29.033-4.227-36.04 6-2.048 2.988-2.46 4.783-2.46 10.735 0 9.355 2.867 14.064 10.976 18.031 4.944 2.42 6.408 2.675 12.912 2.258 5.416-.348 9.073-1.284 13.974-3.577l6.639-3.107V320.222l-5.75 2.159c-10.54 3.956-19.536 4.754-29.25 2.594zm-410-32.11v-32.5h16v53h33v12h-49zm141 0v-32.5l7.25.011 7.25.01 8.468 10.533c12.625 15.701 10.084 15.531 22.598 1.51l10.768-12.063h13.666v65h-15.959l-.27-20.102-.271-20.102-8.863 10.102c-4.874 5.556-9.488 10.102-10.253 10.102-.765 0-5.102-4.505-9.638-10.01l-8.246-10.01-.27 20.01-.271 20.01h-15.96zM260.818 209.4c-10.733-2.298-20.833-10.075-25.368-19.534-1.84-3.84-2.413-6.746-2.468-12.519-.062-6.561.348-8.37 3.22-14.208 7.006-14.234 22.792-21.748 40.052-19.065 12.834 1.996 22.083 8.334 27.133 18.593 3.922 7.966 4.75 14.692 2.684 21.782-3.212 11.015-10.508 18.932-21.386 23.205-5.317 2.088-17.951 3.013-23.867 1.746zm17.278-13.098c7.033-2.657 12.256-10.994 12.293-19.621.027-6.503-1.242-9.908-5.29-14.184-4.16-4.396-8.406-6.136-14.906-6.11-8.728.037-17.047 5.223-19.718 12.294-2.808 7.431-.462 18.197 5.096 23.381 5.158 4.811 15.74 6.803 22.525 4.24zm224.315 12.673c-11.075-2.462-19.366-8.8-23.593-18.032-8.23-17.975.15-37.164 19.545-44.757 8.335-3.262 24.263-3.148 32.548.234l6 2.45.29 7.09.291 7.09-6.082-2.918c-14.016-6.727-29.033-4.228-36.04 5.998-2.048 2.99-2.46 4.784-2.46 10.736 0 9.355 2.867 14.064 10.976 18.031 4.944 2.42 6.408 2.675 12.912 2.258 5.416-.348 9.073-1.284 13.974-3.578l6.639-3.106V204.222l-5.75 2.159c-10.54 3.956-19.536 4.754-29.25 2.594zm-332-32.11v-32.5h16v29.433l9.75-14.466 9.75-14.466 9.34-.289 9.338-.289-10.472 15.3-10.472 15.3 14.41 17.239 14.41 17.239h-20.778L199.3 194.429l-12.388-14.937-.276 14.937-.276 14.937H170.41zm141.135 22.289c2.208-5.659 7.883-20.316 12.613-32.571l8.598-22.283 10.058.283 10.057.283 7.848 18.5 13.698 32.288 5.85 13.788-8.62-.288-8.62-.288-2.206-5.5-2.207-5.5-15.01-.276-15.01-.275-1.923 5.775-1.922 5.776-8.61.288-8.608.288zm39.949-18.538a5451.552 5451.552 0 00-4.087-10.25c-1.21-3.025-2.637-6.625-3.17-8-.86-2.221-1.075-2.309-1.929-.783-.528.944-2.483 5.894-4.343 11-1.86 5.106-3.694 10.07-4.075 11.033-.633 1.597.189 1.75 9.398 1.75h10.093zm36.916-3.75v-32.5h16v53h33v12h-49zm59 0v-32.5h16v65h-16zm104 0v-32.5h47v12h-31v14h30v12h-30v15h32v12h-48zm49-86.89c-11.075-2.463-19.366-8.8-23.593-18.033-8.23-17.975.15-37.164 19.545-44.757 8.335-3.262 24.263-3.148 32.548.234l6 2.45.29 7.09.291 7.09-6.082-2.918c-14.016-6.727-29.033-4.228-36.04 5.998-2.048 2.99-2.46 4.784-2.46 10.736 0 9.355 2.867 14.064 10.976 18.031 4.944 2.42 6.408 2.675 12.912 2.258 5.416-.348 9.073-1.284 13.974-3.578l6.639-3.106V85.222l-5.75 2.159c-10.54 3.956-19.536 4.754-29.25 2.594zm-430-32.11v-32.5h15.946l.277 14.47.277 14.472 9.8-14.471 9.8-14.471h8.45c4.647 0 8.45.236 8.45.524 0 .288-4.465 7.2-9.923 15.361l-9.923 14.837 13.923 16.587c7.658 9.122 13.923 16.835 13.923 17.139 0 .303-4.405.552-9.788.552h-9.788l-12.462-15.048-12.462-15.049-.276 15.049-.276 15.048H170.41zm68 0v-32.5h16v53h33v12h-49zm59 0v-32.5h16v65h-16zm31 0v-32.5l7.25.01 7.25.01 8.468 10.533c12.625 15.701 10.084 15.531 22.598 1.51l10.768-12.063h13.666v65h-15.959l-.27-20.102-.271-20.102-8.863 10.102c-4.874 5.556-9.488 10.102-10.253 10.102-.765 0-5.102-4.505-9.638-10.01l-8.246-10.01-.27 20.01-.271 20.01h-15.96zm81.135 22.288c2.208-5.659 7.883-20.316 12.613-32.571l8.598-22.283 10.058.283 10.057.283 7.848 18.5 13.698 32.288 5.85 13.788-8.62-.288-8.62-.288-2.206-5.5-2.207-5.5-15.01-.276-15.01-.275-1.923 5.775-1.922 5.776-8.61.288-8.608.288zm39.949-18.538a5451.552 5451.552 0 00-4.087-10.25c-1.21-3.025-2.637-6.625-3.17-8-.86-2.221-1.075-2.309-1.929-.783-.528.944-2.483 5.894-4.343 11-1.86 5.106-3.694 10.07-4.075 11.033-.633 1.597.189 1.75 9.398 1.75h10.093zm45.916 2.25v-26.5h-23v-12h62v12h-23v53h-16zm50-6v-32.5h16v65h-16zm104 0v-32.5h15.946l.277 14.47.277 14.472 9.8-14.471 9.8-14.471h8.45c4.647 0 8.45.236 8.45.524 0 .288-4.465 7.2-9.923 15.361l-9.923 14.837 14.067 16.758c9.595 11.43 14.287 16.322 14.76 15.389.38-.753 6.023-15.221 12.54-32.152L735.78 25.3l10.046.283 10.046.283 7.848 18.5 13.698 32.288 5.85 13.788-8.62-.288-8.62-.288-2.206-5.5-2.207-5.5-15.01-.276-15.01-.275-1.925 5.775-1.924 5.776-18.438.271-18.438.271-12.48-15.07-12.48-15.069-.275 15.049-.276 15.048H649.41zm105.084 3.75a5451.552 5451.552 0 00-4.087-10.25c-1.21-3.025-2.637-6.625-3.17-8-.86-2.221-1.075-2.309-1.929-.783-.528.944-2.483 5.894-4.343 11-1.86 5.106-3.694 10.07-4.075 11.033-.633 1.597.189 1.75 9.398 1.75h10.093zm14.647-29.233l3.769-6.983 7.25-.017c3.987-.01 7.25.156 7.25.368 0 .213-3.4 3.363-7.554 7-6.197 5.427-8.176 6.615-11.019 6.615h-3.464z"/><path style="fill:#30a4fd" d="M.411 60.866v-57.5h116v115H.41z"/><path style="fill:#48af00" d="M558.283 317.616c-1.243-1.586-1.208-1.622.378-.378.962.755 1.75 1.543 1.75 1.75 0 .823-.821.294-2.128-1.372zm90-11c-1.243-1.586-1.208-1.622.378-.378.962.755 1.75 1.543 1.75 1.75 0 .823-.821.294-2.128-1.372zm-531.872-130.25v-58h116l.062 26.75c.09 38.472-.095 62.616-.481 63.002-.185.185-6.636-7.22-14.336-16.455l-14-16.79 10.466-15.293 10.467-15.292-9.339.29-9.339.288-9.75 14.466-9.75 14.466v-29.432h-16v65h15.948l.276-14.937.276-14.937 12.388 14.937 12.388 14.937h20.724v25h-116zm380.872 14.25c-1.243-1.586-1.208-1.622.378-.378 1.666 1.307 2.195 2.128 1.372 2.128-.207 0-.995-.788-1.75-1.75zm98-119c-1.243-1.586-1.208-1.622.378-.378.962.755 1.75 1.543 1.75 1.75 0 .823-.821.294-2.128-1.372z"/><path style="fill:#dd0808" d="M.411 292.366v-58h116v116H.41z"/></svg>