<?xml version="1.0" standalone="no"?>
<!DOCTYPE svg PUBLIC "-//W3C//DTD SVG 20010904//EN"
 "http://www.w3.org/TR/2001/REC-SVG-20010904/DTD/svg10.dtd">
<svg version="1.0" xmlns="http://www.w3.org/2000/svg"
 width="1392.000000pt" height="1392.000000pt" viewBox="0 0 1392.000000 1392.000000"
 preserveAspectRatio="xMidYMid meet">
<metadata>
Created by potrace 1.11, written by Peter Selinger 2001-2013
</metadata>
<g transform="translate(0.000000,1392.000000) scale(0.100000,-0.100000)"
fill="#000000" stroke="none">
<path d="M2320 11600 l0 -2320 63 -1 c34 -1 66 -1 71 0 5 1 42 2 83 1 40 -1
81 -1 91 -1 9 0 60 0 112 0 52 0 106 0 120 1 14 1 32 2 40 1 14 0 251 0 275 0
6 0 37 0 70 0 33 -1 85 -1 115 0 30 0 78 0 105 0 28 0 59 0 70 0 11 0 76 0
145 0 69 0 130 0 135 0 6 0 39 0 75 0 36 0 85 0 110 0 25 0 70 0 100 0 30 0
64 0 75 0 11 0 76 0 145 0 69 0 130 0 135 0 6 0 37 0 70 0 33 -1 85 -1 115 0
30 0 78 0 105 0 28 0 59 0 70 0 11 0 76 0 145 0 69 0 136 0 150 1 14 0 54 -1
90 -1 36 0 73 0 83 0 9 0 46 0 82 0 36 0 71 0 78 0 6 0 41 0 77 0 36 0 72 0
80 0 8 0 49 0 90 0 41 0 82 0 90 0 8 1 42 1 75 0 33 0 67 -1 75 0 8 0 71 0
140 0 69 0 145 0 170 0 25 0 70 0 100 0 30 0 64 0 75 0 11 0 76 0 145 0 408 0
390 1 399 -24 5 -12 5 -32 0 -43 -4 -12 -6 -24 -4 -26 2 -2 4 -46 4 -98 1
-170 0 -535 -1 -560 0 -8 0 -51 1 -95 0 -44 0 -93 0 -110 -1 -16 -1 -59 0 -95
0 -36 0 -72 0 -80 0 -8 0 -67 0 -130 0 -63 0 -122 -1 -130 0 -8 0 -51 1 -95 0
-44 0 -93 0 -110 -1 -16 -1 -97 0 -180 0 -82 0 -157 -1 -165 0 -8 0 -40 1 -70
0 -30 1 -62 0 -70 0 -8 0 -46 0 -85 0 -38 0 -77 0 -85 -1 -8 0 -51 1 -95 2
-116 2 -307 0 -330 -2 -24 -2 -37 -1 -185 0 -63 0 -122 -1 -130 0 -8 0 -51 1
-95 0 -44 0 -93 0 -110 -1 -57 0 -270 2 -315 1 -25 1 -52 1 -60 -1 -8 -1 -67
-1 -130 0 -63 0 -122 0 -130 0 -8 0 -42 0 -75 1 -33 1 -66 0 -72 -1 -7 -1 -19
-2 -25 -1 -17 0 -151 2 -213 1 -27 1 -57 0 -65 0 -8 0 -46 0 -85 0 -38 0 -77
0 -85 0 -8 0 -52 -1 -97 0 -45 -5 -85 -10 -88 -8 -5 -103 -7 -150 -4 -14 1
-145 0 -254 -1 -28 -1 -53 -3 -57 -6 -4 -2 -10 0 -14 6 -4 6 -11 8 -16 4 -5
-3 -44 -5 -87 -4 -42 1 -84 1 -92 1 -30 -1 -108 0 -218 2 -61 1 -112 -2 -112
-6 0 -5 -4 -6 -8 -3 -8 5 -68 7 -172 5 -73 -1 -203 0 -230 1 -14 1 -31 2 -37
1 -7 0 -47 0 -88 0 -41 0 -83 0 -92 0 -10 0 -38 0 -63 0 -56 0 -193 0 -265 0
-11 0 -45 0 -75 0 -30 0 -59 0 -65 0 -35 0 -112 0 -125 0 -8 0 -42 0 -75 0
-33 0 -67 0 -75 0 -13 0 -167 0 -225 0 -11 0 -45 0 -75 0 -30 0 -59 0 -65 0
-35 0 -112 0 -125 0 -8 0 -42 0 -75 0 -33 0 -67 0 -75 0 -8 0 -60 0 -115 0
-55 0 -107 0 -115 0 -8 0 -35 0 -60 0 -25 0 -53 0 -62 0 -23 0 -163 0 -185 0
-39 -1 -114 0 -221 2 -61 1 -112 -2 -112 -6 0 -5 -4 -6 -8 -3 -9 5 -71 7 -177
5 -27 0 -77 0 -110 0 -33 0 -69 1 -80 0 -11 0 -67 0 -124 0 -57 1 -107 -2
-112 -5 -5 -3 -9 -2 -9 3 0 4 -29 8 -65 8 l-65 0 0 -2322 0 -2323 2321 0 2320
0 0 88 c-1 48 -1 94 0 102 0 8 0 69 0 135 0 66 0 138 0 160 1 22 1 65 0 95 -2
51 -3 337 -2 370 0 8 0 80 0 160 0 80 0 152 0 160 0 8 0 80 0 160 0 80 0 151
0 158 1 6 1 18 2 25 1 23 0 252 -2 302 -1 28 -1 57 -1 65 1 8 1 67 0 130 0
110 0 135 3 163 1 16 0 240 -2 347 -2 79 -1 99 2 133 0 6 0 66 0 132 0 66 0
138 0 160 1 22 1 65 0 95 -2 51 -3 336 -2 370 0 8 0 83 -1 165 -1 140 0 165 3
198 0 6 1 66 0 132 0 66 0 127 0 135 1 8 1 58 0 110 0 52 0 102 0 110 0 8 0
44 0 80 0 36 0 95 0 132 l1 68 31 1 c28 0 162 -1 192 -2 6 -1 35 0 65 0 30 0
64 0 75 0 36 0 140 0 155 0 8 0 44 0 80 0 36 -1 72 -1 80 0 8 0 53 0 100 0 47
0 92 0 100 0 8 0 40 0 70 0 30 0 62 0 70 0 8 0 42 0 75 0 33 0 67 0 75 0 8 0
42 0 75 0 33 0 67 0 75 0 8 0 53 0 100 0 47 0 92 0 100 0 8 0 40 0 70 0 30 0
62 0 70 0 8 0 42 0 75 0 33 0 67 0 75 0 8 0 42 0 75 0 33 0 65 0 70 0 6 0 48
0 95 0 47 0 96 0 110 1 14 1 30 2 35 2 19 -1 140 -1 155 -1 8 0 38 0 65 0 28
0 57 0 65 0 40 1 279 0 310 -2 19 0 42 -1 50 0 8 0 71 0 140 0 69 0 134 0 145
1 26 2 28 2 105 1 36 0 72 0 80 0 8 0 38 0 65 0 28 0 57 0 65 0 49 1 281 0
310 -2 19 0 42 -1 50 0 8 0 69 0 135 0 66 0 127 0 135 0 8 0 40 0 70 0 30 0
62 0 70 0 8 0 42 0 75 0 33 0 67 0 75 0 34 1 141 1 148 0 4 -1 35 -1 70 0 l62
1 0 2320 0 2319 -97 1 c-54 1 -107 1 -118 1 -11 -1 -42 0 -70 0 -27 1 -57 1
-65 0 -8 0 -51 0 -95 0 -44 1 -89 0 -100 -1 -24 -2 -25 -2 -100 -1 -33 0 -67
0 -75 0 -8 -1 -44 -1 -80 0 -36 0 -74 0 -85 0 -11 0 -78 0 -150 0 -71 0 -148
0 -170 0 -22 -1 -65 0 -95 0 -30 0 -64 1 -75 0 -11 0 -76 0 -145 0 -69 0 -136
0 -150 -1 -14 0 -54 0 -90 1 -36 0 -72 0 -80 0 -8 0 -49 0 -90 0 -41 0 -82 0
-90 0 -8 -1 -42 -1 -75 0 -33 0 -67 1 -75 0 -8 0 -46 0 -85 0 -38 0 -77 0 -85
-1 -8 0 -42 0 -75 1 -33 0 -67 0 -75 0 -8 0 -42 0 -75 0 -33 0 -67 0 -75 0 -8
-1 -44 -1 -80 0 -36 0 -74 0 -85 0 -11 0 -78 0 -150 0 -71 0 -148 0 -170 0
-22 -1 -65 0 -95 0 -30 0 -64 1 -75 0 -11 0 -76 0 -145 0 -69 0 -136 0 -150
-1 -14 0 -54 0 -90 1 -36 0 -72 0 -80 0 -8 0 -49 0 -90 0 -41 0 -82 0 -90 0
-8 -1 -42 -1 -75 0 -33 0 -67 1 -75 0 -8 0 -46 0 -85 0 -38 0 -77 0 -85 -1 -8
0 -42 0 -75 1 -33 0 -69 1 -80 0 -113 -2 -215 3 -220 10 -3 5 -5 20 -6 33 -1
23 -1 209 0 271 0 17 0 73 0 122 -1 50 -1 97 0 105 0 8 0 67 0 130 -1 63 0
122 0 130 0 8 0 42 0 75 -1 33 -1 67 0 75 0 8 0 80 0 160 0 80 0 151 0 158 1
6 1 18 2 25 1 23 0 252 -2 302 -1 28 -1 57 -1 65 1 8 1 67 0 130 0 110 0 135
3 163 1 16 0 240 -2 347 -2 79 -1 99 2 133 0 6 0 66 0 132 0 66 0 138 0 160 1
22 1 65 0 95 -2 51 -3 336 -2 370 0 8 0 83 -1 165 -1 140 0 165 3 198 0 6 1
66 0 132 0 66 0 127 0 135 1 26 0 212 -2 265 -1 28 -1 61 -1 75 1 14 1 66 1
115 -1 50 -1 97 -1 105 4 78 1 244 -4 251 -3 5 -948 9 -2320 9 l-2314 0 0
-2320z"/>
</g>
</svg>
