<?xml version="1.0" standalone="no"?>
<!DOCTYPE svg PUBLIC "-//W3C//DTD SVG 20010904//EN"
 "http://www.w3.org/TR/2001/REC-SVG-20010904/DTD/svg10.dtd">
<svg version="1.0" xmlns="http://www.w3.org/2000/svg"
 width="1078.000000pt" height="348.000000pt" viewBox="0 0 1078.000000 348.000000"
 preserveAspectRatio="xMidYMid meet">

<g transform="translate(0.000000,348.000000) scale(0.100000,-0.100000)"
fill="#000000" stroke="none">
<path d="M8033 3305 c-136 -30 -255 -121 -315 -242 -31 -63 -33 -74 -33 -168
0 -91 3 -106 31 -166 111 -234 415 -315 709 -189 l45 19 0 90 0 90 -65 -30
c-185 -83 -328 -78 -433 16 -134 121 -98 323 71 395 101 44 248 34 375 -25
l52 -24 0 90 0 90 -45 20 c-106 47 -268 61 -392 34z"/>
<path d="M2430 2900 l0 -410 310 0 310 0 0 75 0 75 -210 0 -210 0 0 335 0 335
-100 0 -100 0 0 -410z"/>
<path d="M3350 2900 l0 -410 100 0 100 0 0 410 0 410 -100 0 -100 0 0 -410z"/>
<path d="M3910 2900 l0 -410 100 0 100 0 2 251 3 251 105 -125 c58 -69 113
-126 122 -126 9 -1 67 55 130 125 l113 126 3 -251 2 -251 100 0 100 0 0 410 0
410 -87 0 -88 -1 -135 -155 -135 -155 -18 23 c-10 12 -69 82 -130 155 l-111
133 -88 0 -88 0 0 -410z"/>
<path d="M5235 2943 c-83 -202 -158 -386 -167 -410 l-18 -43 109 0 108 0 29
78 29 77 186 3 186 2 28 -72 c15 -40 31 -77 35 -81 4 -4 54 -6 112 -5 l106 3
-177 405 -177 405 -120 3 -119 3 -150 -368z m335 13 c33 -81 60 -149 60 -152
0 -2 -54 -4 -120 -4 -66 0 -120 3 -120 7 0 13 113 303 116 300 2 -2 31 -70 64
-151z"/>
<path d="M6050 3235 l0 -75 150 0 150 0 0 -335 0 -335 100 0 100 0 0 335 0
335 150 0 150 0 0 75 0 75 -400 0 -400 0 0 -75z"/>
<path d="M7150 2900 l0 -410 100 0 100 0 0 410 0 410 -100 0 -100 0 0 -410z"/>
<path d="M9935 2943 c-83 -202 -158 -386 -167 -410 l-18 -43 109 0 108 0 29
78 29 77 186 3 186 2 28 -72 c15 -40 31 -77 35 -81 4 -4 54 -6 112 -5 l106 3
-177 405 -177 405 -120 3 -119 3 -150 -368z m335 13 c33 -81 60 -149 60 -152
0 -2 -54 -4 -120 -4 -66 0 -120 3 -120 7 0 13 113 303 116 300 2 -2 31 -70 64
-151z"/>
<path d="M10535 3220 l-45 -90 47 0 c46 1 51 4 143 90 l95 89 -97 1 -98 0 -45
-90z"/>
<path d="M1400 2890 l0 -410 100 0 100 0 2 180 3 181 155 -180 155 -180 134 0
135 -1 -31 33 c-80 85 -323 369 -323 378 0 5 33 46 73 92 39 45 118 135 175
200 l103 117 -133 -1 -133 0 -155 -180 -155 -180 -3 181 -2 180 -100 0 -100 0
0 -410z"/>
<path d="M8810 2890 l0 -410 100 0 100 0 2 180 3 181 155 -180 155 -180 134 0
135 -1 -31 33 c-80 85 -323 369 -323 378 0 5 33 46 73 92 39 45 118 135 175
200 l103 117 -133 -1 -133 0 -155 -180 -155 -180 -3 181 -2 180 -100 0 -100 0
0 -410z"/>
<path d="M2780 2139 c-131 -25 -254 -123 -314 -249 -28 -59 -31 -74 -31 -160
0 -86 3 -101 32 -162 76 -161 237 -258 428 -258 192 0 351 97 429 260 28 59
31 74 31 160 0 86 -3 101 -31 160 -94 197 -308 295 -544 249z m207 -174 c215
-64 215 -406 0 -470 -185 -55 -347 55 -347 235 0 180 162 290 347 235z"/>
<path d="M6993 2135 c-136 -30 -255 -121 -315 -242 -31 -63 -33 -74 -33 -168
0 -91 3 -106 31 -166 111 -234 415 -315 709 -189 l45 19 0 90 0 90 -65 -30
c-185 -83 -328 -78 -433 16 -134 121 -98 323 71 395 101 44 248 34 375 -25
l52 -24 0 90 0 90 -45 20 c-106 47 -268 61 -392 34z"/>
<path d="M1400 1730 l0 -410 100 0 100 0 2 179 3 179 155 -179 155 -178 134
-1 c127 0 133 1 119 18 -186 211 -338 388 -338 393 0 5 241 284 333 387 l20
22 -134 0 -134 0 -155 -179 -155 -178 -3 179 -2 178 -100 0 -100 0 0 -410z"/>
<path d="M3845 1773 c-83 -202 -158 -386 -167 -410 l-18 -43 109 0 108 0 29
78 29 77 186 3 186 2 28 -72 c15 -40 31 -77 35 -81 4 -4 54 -6 112 -5 l106 3
-177 405 -177 405 -120 3 -119 3 -150 -368z m335 13 c33 -81 60 -149 60 -152
0 -2 -54 -4 -120 -4 -66 0 -120 3 -120 7 0 13 113 303 116 300 2 -2 31 -70 64
-151z"/>
<path d="M4970 1730 l0 -410 310 0 310 0 0 75 0 75 -210 0 -210 0 0 335 0 335
-100 0 -100 0 0 -410z"/>
<path d="M6000 1730 l0 -410 100 0 100 0 0 410 0 410 -100 0 -100 0 0 -410z"/>
<path d="M7880 1730 l0 -410 300 0 300 0 0 75 0 75 -200 0 -200 0 0 100 0 100
185 0 185 0 0 75 0 75 -185 0 -185 0 0 85 0 85 195 0 195 0 0 75 0 75 -295 0
-295 0 0 -410z"/>
<path d="M0 580 l0 -580 580 0 580 0 0 580 0 580 -580 0 -580 0 0 -580z"/>
<path d="M1630 979 c-131 -25 -254 -123 -314 -249 -28 -59 -31 -74 -31 -160 0
-86 3 -101 32 -162 76 -161 237 -258 428 -258 192 0 351 97 429 260 28 59 31
74 31 160 0 86 -3 101 -31 160 -94 197 -308 295 -544 249z m207 -174 c215 -64
215 -406 0 -470 -185 -55 -347 55 -347 235 0 180 162 290 347 235z"/>
<path d="M3560 979 c-131 -25 -254 -123 -314 -249 -28 -59 -31 -74 -31 -160 0
-86 3 -101 32 -162 76 -161 237 -258 428 -258 192 0 351 97 429 260 28 59 31
74 31 160 0 86 -3 101 -31 160 -94 197 -308 295 -544 249z m207 -174 c215 -64
215 -406 0 -470 -185 -55 -347 55 -347 235 0 180 162 290 347 235z"/>
<path d="M5810 979 c-131 -25 -254 -123 -314 -249 -28 -59 -31 -74 -31 -160 0
-86 3 -101 32 -162 76 -161 237 -258 428 -258 192 0 351 97 429 260 28 59 31
74 31 160 0 86 -3 101 -31 160 -94 197 -308 295 -544 249z m207 -174 c167 -50
219 -286 91 -415 -125 -125 -367 -75 -422 87 -73 215 108 394 331 328z"/>
<path d="M7993 975 c-136 -30 -255 -121 -315 -242 -31 -63 -33 -74 -33 -168 0
-91 3 -106 31 -166 111 -234 415 -315 709 -189 l45 19 0 90 0 90 -65 -30
c-185 -83 -328 -78 -433 16 -134 121 -98 323 71 395 101 44 248 34 375 -25
l52 -24 0 90 0 90 -45 20 c-106 47 -268 61 -392 34z"/>
<path d="M2430 570 l0 -410 310 0 310 0 0 75 0 75 -210 0 -210 0 0 335 0 335
-100 0 -100 0 0 -410z"/>
<path d="M4360 570 l0 -410 100 0 100 0 2 251 3 251 105 -125 c58 -69 113
-126 122 -126 9 -1 67 55 130 125 l113 126 3 -251 2 -251 100 0 100 0 0 410 0
410 -87 0 -88 -1 -135 -155 -135 -155 -18 23 c-10 12 -69 82 -130 155 l-111
133 -88 0 -88 0 0 -410z"/>
<path d="M6612 693 c3 -286 3 -288 29 -343 66 -140 211 -209 413 -197 167 10
267 65 326 181 l35 69 3 288 3 289 -100 0 -100 0 -3 -268 c-3 -268 -3 -269
-28 -305 -83 -122 -302 -112 -361 17 -17 37 -19 69 -19 299 l0 257 -101 0
-100 0 3 -287z"/>
</g>
</svg>
