<svg xmlns="http://www.w3.org/2000/svg" width="1600.136" height="456.287"><defs><filter id="a" style="color-interpolation-filters:sRGB"><feComposite result="composite1" k2=".852" operator="arithmetic" in2="SourceGraphic"/><feColorMatrix result="colormatrix1" type="saturate" values="1" in="composite1"/><feFlood result="flood1" flood-color="#1AF725" flood-opacity=".114"/><feBlend result="blend1" in2="colormatrix1" in="flood1"/><feBlend result="blend2" in2="blend1"/><feColorMatrix result="colormatrix2" type="saturate" values="1" in="blend2"/><feComposite result="composite2" k2="1" operator="in" in2="SourceGraphic" in="colormatrix2"/></filter></defs><g style="filter:url(#a)" transform="translate(1905.136 -962)" data-name="Group 1647"><path fill="#f8f8f8" data-name="Rectangle 582" d="M-1905 962h1600v456h-1600z"/><path fill="#f2f2f2" d="M-1904.778 1418.287a143.6 143.6 0 0024.9-22.014c70.712-79.335 129.35-74.161 187.989-31.044s213.859 20.7 181.09-155.22 115.556-110.38 155.224-170.743c18.971-28.974 21.731-55.19 16.9-77.265h-566.461s.15 456.086.358 456.286z" data-name="Path 29803"/><path fill="#f2f2f2" d="M-305.496 964.863c-42.468-5.167-138.882-9.689-198.949 46.828-78.432 74.279-143.473 69.435-208.514 29.066s-237.209-19.378-200.863 145.329-128.169 103.343-172.167 159.859c-21.043 27.128-24.1 51.672-18.747 72.341h799.24z" data-name="Path 29802"/></g></svg>